<svg width="240" height="57" viewBox="0 0 240 57" fill="none" xmlns="http://www.w3.org/2000/svg">
<path d="M52.2675 10.2668C51.4863 10.2668 50.762 10.5095 50.1619 10.922L45.1564 8.06227C45.5232 7.31839 45.7341 6.48491 45.7341 5.60009C45.7341 2.51164 43.2225 0 40.134 0C37.0456 0 34.5339 2.51164 34.5339 5.60009C34.5339 7.57693 35.5653 9.31389 37.1165 10.3107L34.3323 14.4874C32.3741 13.5681 30.2284 13.0678 28.0005 13.0678C24.9774 13.0678 22.0933 13.9638 19.6451 15.6233L14.7758 11.5651C14.8748 11.1479 14.9336 10.7148 14.9336 10.2678C14.9336 7.17932 12.4219 4.66768 9.33349 4.66768C6.24504 4.66768 3.7334 7.17932 3.7334 10.2678C3.7334 12.6077 5.17729 14.6144 7.21945 15.4507L4.00313 24.2951C3.9126 24.2885 3.8258 24.268 3.7334 24.268C1.67443 24.268 0 25.9424 0 28.0014C0 30.0604 1.67443 31.7348 3.7334 31.7348C5.79236 31.7348 7.46679 30.0604 7.46679 28.0014C7.46679 26.6966 6.79198 25.5504 5.77556 24.8831L9.05908 15.8548C9.15055 15.8595 9.24109 15.8688 9.33349 15.8688C11.2823 15.8688 12.9997 14.8673 14.003 13.3534L18.1452 16.8049C17.9082 17.014 17.6674 17.2175 17.4415 17.4434C17.1914 17.6935 16.9561 17.9511 16.7275 18.2134C16.7107 18.233 16.7004 18.2554 16.6855 18.2759C14.3512 20.9826 13.0669 24.3912 13.0669 28.0023C13.0669 31.6135 14.3512 35.022 16.6855 37.7288C16.7004 37.7493 16.7107 37.7717 16.7275 37.7913C16.9561 38.0536 17.1914 38.3121 17.4415 38.5613C20.2611 41.3819 24.0123 42.9359 28.0005 42.9359C29.365 42.9359 30.6978 42.7408 31.9793 42.389L32.4843 44.9155C30.3142 45.3561 28.5978 47.0557 28.1293 49.2164L19.5779 46.884C19.5826 46.8112 19.5994 46.743 19.5994 46.6693C19.5994 44.6103 17.925 42.9359 15.866 42.9359C13.807 42.9359 12.1326 44.6103 12.1326 46.6693C12.1326 48.7283 13.807 50.4027 15.866 50.4027C17.1895 50.4027 18.3478 49.7055 19.0105 48.6639L28.0527 51.1298C28.4111 53.8748 30.7594 56.0028 33.5996 56.0028C36.6881 56.0028 39.1997 53.4912 39.1997 50.4027C39.1997 47.5793 37.0969 45.2432 34.3771 44.8633L33.762 41.786C35.5335 41.0459 37.1613 39.9604 38.5594 38.5622C38.8096 38.3121 39.0448 38.0545 39.2735 37.7922C39.2903 37.7726 39.3005 37.7502 39.3155 37.7297C41.6498 35.022 42.934 31.6144 42.934 28.0023C42.934 24.3912 41.6498 20.9826 39.3155 18.275C39.3005 18.2544 39.2903 18.232 39.2735 18.2124C39.0448 17.9502 38.8096 17.6916 38.5594 17.4424C37.7689 16.6509 36.8981 15.9715 35.9759 15.3863L38.8665 11.0518C39.2744 11.147 39.6972 11.2021 40.1331 11.2021C41.6619 11.2021 43.0489 10.5851 44.0606 9.58736L48.9262 12.3678C48.6825 12.8634 48.5332 13.4132 48.5332 14.0021C48.5332 16.0611 50.2076 17.7355 52.2666 17.7355C54.3256 17.7355 56 16.0611 56 14.0021C56 11.9431 54.3256 10.2668 52.2675 10.2668ZM34.0056 16.398C34.169 16.4829 34.3314 16.5716 34.491 16.664C34.9231 16.9132 35.3403 17.1867 35.7417 17.4835C35.9414 17.6319 36.1374 17.7859 36.3287 17.9455C36.3829 17.9903 36.7711 18.3991 36.8253 18.3842C36.0543 18.5998 35.1359 18.8247 34.0952 19.0216C33.357 17.8158 32.4852 16.6752 31.4511 15.6411C31.3363 15.5272 31.2299 15.4292 31.1188 15.3219C31.3167 15.3704 31.5173 15.4124 31.7124 15.4703C32.5039 15.7036 33.273 16.0163 34.0056 16.398ZM41.0216 27.0671H36.6106C36.4902 24.8607 35.9489 22.7224 35.0174 20.7353C36.3147 20.4665 37.4086 20.1697 38.2486 19.9065C39.8783 21.9626 40.8368 24.4369 41.0216 27.0671ZM38.2496 36.0945C37.4096 35.8313 36.3147 35.5345 35.0183 35.2657C35.9498 33.2786 36.4911 31.1403 36.6115 28.9338H41.0225C40.8368 31.564 39.8783 34.0383 38.2496 36.0945ZM36.0945 38.2458C34.7962 39.2744 33.301 40.0631 31.7124 40.5316C31.5173 40.5895 31.3167 40.6315 31.1188 40.68C31.2299 40.5727 31.3372 40.4756 31.4511 40.3608C32.4852 39.3267 33.357 38.1861 34.0952 36.9802C35.1359 37.1772 36.0543 37.4021 36.8253 37.6177C36.7282 37.7064 36.633 37.7969 36.5341 37.8818C36.3894 38.006 36.2429 38.1273 36.0945 38.2458ZM23.7845 40.3701C22.9996 40.1023 22.2417 39.756 21.524 39.3425C21.0881 39.0914 20.6662 38.8152 20.2611 38.5165C20.1361 38.4241 19.2821 37.5878 19.1766 37.6168C19.9475 37.4012 20.8659 37.1762 21.9066 36.9793C22.6449 38.1852 23.5167 39.3257 24.5508 40.3599C24.6656 40.4737 24.772 40.5717 24.8831 40.6791C24.6852 40.6305 24.4845 40.5885 24.2895 40.5307C24.1196 40.4812 23.9516 40.4271 23.7845 40.3701ZM14.9793 28.9338H19.3903C19.5107 31.1403 20.0521 33.2786 20.9835 35.2657C19.6862 35.5335 18.5923 35.8313 17.7523 36.0945C16.1217 34.0383 15.1641 31.564 14.9793 28.9338ZM17.7514 19.9065C18.5914 20.1697 19.6862 20.4665 20.9826 20.7353C20.0511 22.7224 19.5098 24.8607 19.3894 27.0671H14.9784C15.1641 24.4369 16.1217 21.9626 17.7514 19.9065ZM19.4697 18.1219C21.0246 16.7769 22.8838 15.81 24.8821 15.3219C24.7711 15.4292 24.6637 15.5272 24.5499 15.6411C23.5167 16.6752 22.644 17.8158 21.9057 19.0216C20.865 18.8247 19.9466 18.5998 19.1757 18.3842C19.2727 18.2946 19.3707 18.2078 19.4697 18.1219ZM25.8706 39.0401C25.1314 38.3009 24.4761 37.5057 23.9049 36.6666C24.8905 36.5406 25.9499 36.4538 27.0671 36.4202V40.1499C26.6844 39.8269 26.2906 39.4611 25.8706 39.0401ZM25.8706 16.9608C26.2915 16.5399 26.6844 16.174 27.0671 15.8511V19.5807C25.9499 19.5471 24.8896 19.4603 23.9049 19.3343C24.4752 18.4952 25.1314 17.7 25.8706 16.9608ZM27.0671 21.4418V27.0671H21.2561C21.3849 24.9727 21.9393 22.9464 22.8866 21.0797C24.156 21.271 25.5682 21.3989 27.0671 21.4418ZM27.0671 28.9338V34.5591C25.5682 34.602 24.156 34.7299 22.8866 34.9212C21.9393 33.0546 21.3849 31.0282 21.2561 28.9338H27.0671ZM28.9338 40.1527V36.4211C30.051 36.4547 31.1113 36.5415 32.096 36.6675C31.5248 37.5066 30.8696 38.3018 30.1304 39.041C29.7085 39.462 29.3146 39.8288 28.9338 40.1527ZM28.9338 34.5591V28.9338H34.7448C34.616 31.0282 34.0616 33.0546 33.1143 34.9212C31.844 34.7299 30.4328 34.602 28.9338 34.5591ZM28.9338 27.0671V21.4418C30.4328 21.3989 31.8449 21.271 33.1143 21.0797C34.0616 22.9464 34.616 24.9717 34.7448 27.0671H28.9338ZM28.9338 19.5807V15.8511C29.3165 16.1749 29.7104 16.5399 30.1304 16.9608C30.8696 17.7 31.5248 18.4952 32.096 19.3343C31.1104 19.4603 30.051 19.5471 28.9338 19.5807Z" fill="#045DC5"/>
<path d="M82.5579 15.9351L82.558 20.9365H85.7811V22.6592C85.7811 23.5483 85.5125 24.28 84.9753 24.8542C84.4381 25.4284 83.6323 25.7156 82.558 25.7156V43.2761C82.558 43.6466 82.6135 43.906 82.7247 44.0542C82.8358 44.2024 82.984 44.3506 83.1693 44.4988C83.4286 44.684 83.6972 44.9804 83.975 45.3879C84.2529 45.7954 84.3918 46.3511 84.3918 47.055V48.6666H75.3893V46.9994C75.3893 46.2955 75.5282 45.7398 75.8061 45.3323C76.0839 44.9248 76.3711 44.6284 76.6674 44.4432C76.8526 44.295 77.0008 44.1468 77.112 43.9986C77.2231 43.8504 77.2787 43.591 77.2787 43.2205V25.7156H74V24.104C74 23.3631 74.2223 22.65 74.6669 21.9645C75.1114 21.2791 75.9821 20.9365 77.2787 20.9365V14.2679V12.9342C77.2787 12.008 77.4732 11.1281 77.8622 10.2946C78.2512 9.461 78.8162 8.76636 79.5571 8.21065C80.2981 7.65494 81.1965 7.28445 82.2523 7.09923C83.3082 6.91401 84.5214 6.98808 85.8922 7.32151C85.9663 7.32151 86.0682 7.37708 86.1978 7.48822C86.3275 7.59937 86.3923 7.72902 86.3923 7.87722V11.3226C86.3923 11.5449 86.3368 11.6931 86.2256 11.7672C86.1145 11.8413 86.0218 11.8598 85.9478 11.8227C84.7993 11.5264 83.9472 11.6097 83.3915 12.0728C82.8358 12.5359 82.5579 13.1934 82.5579 14.0456L82.5579 15.9351ZM106.972 44.1652C107.268 44.3505 107.592 44.7117 107.944 45.2489C108.296 45.7861 108.472 46.4067 108.472 47.1105V48.7221H103.193C102.748 48.7221 102.387 48.5924 102.109 48.3331C101.831 48.0737 101.655 47.7959 101.581 47.4995C101.248 47.7959 100.859 48.0367 100.414 48.2219C100.007 48.4071 99.5345 48.5738 98.9973 48.722C98.4601 48.8702 97.8395 48.9443 97.1356 48.9443C94.283 48.9443 92.2362 48.1385 90.995 46.527C89.7538 44.9154 89.1334 42.6648 89.1334 39.7751V39.6084C89.1334 38.1264 89.3372 36.8483 89.7447 35.7739C90.1522 34.6996 90.7172 33.8198 91.4396 33.1343C92.162 32.4488 93.0049 31.921 93.9681 31.5505C94.9313 31.18 95.9686 30.9392 97.0801 30.8281C97.9692 30.754 98.7009 30.6614 99.2751 30.5502C99.8493 30.4391 100.303 30.3465 100.637 30.2724C101.044 30.1612 101.322 30.0686 101.47 29.9945V29.6055C101.47 29.0127 101.442 28.4478 101.387 27.9106C101.331 27.3735 101.192 26.901 100.97 26.4935C100.748 26.086 100.414 25.7711 99.9698 25.5488C99.5252 25.3265 98.9139 25.2154 98.1359 25.2154C97.3579 25.2154 96.7466 25.308 96.3021 25.4933C95.8575 25.6785 95.5334 25.91 95.3296 26.1879C95.1258 26.4657 94.9961 26.7714 94.9406 27.1048C94.885 27.4382 94.8572 27.7717 94.8572 28.1051V28.0495C94.8572 28.457 94.7368 28.7627 94.496 28.9665C94.2552 29.1702 93.9403 29.3092 93.5513 29.3832C93.1623 29.4573 92.7177 29.5036 92.2176 29.5221C91.7174 29.5406 91.2266 29.5499 90.7449 29.5499H89.578V27.5493C89.578 26.6231 89.7262 25.7433 90.0225 24.9097C90.3189 24.0761 90.8005 23.3352 91.4674 22.6868C92.1342 22.0385 93.0049 21.5199 94.0792 21.1309C95.1536 20.7419 96.4873 20.5474 98.0804 20.5474C99.6734 20.5474 101.016 20.7326 102.109 21.1031C103.202 21.4736 104.091 22.0015 104.777 22.6868C105.462 23.3722 105.953 24.2057 106.249 25.1876C106.546 26.1694 106.694 27.2901 106.694 28.5496V42.887C106.694 43.1834 106.703 43.4427 106.722 43.665C106.74 43.8873 106.824 44.0541 106.972 44.1652ZM98.0804 44.6654C98.7472 44.6654 99.3029 44.5636 99.7475 44.3598C100.192 44.156 100.544 43.906 100.803 43.6096C101.1 43.3132 101.34 42.9613 101.526 42.5538V34.4404C101.303 34.5145 101.007 34.5885 100.637 34.6626C100.34 34.7367 99.9605 34.8108 99.4974 34.8849C99.0343 34.9589 98.4694 35.033 97.8025 35.1071C96.7281 35.2182 95.8483 35.7091 95.1629 36.5797C94.4774 37.4504 94.1348 38.5155 94.1348 39.7751V40.2752C94.1348 41.6089 94.4867 42.6741 95.1906 43.4706C95.8946 44.267 96.8578 44.6654 98.0804 44.6654ZM121.049 25.0487C120.457 25.0487 119.975 25.1504 119.604 25.3542C119.234 25.5579 118.937 25.808 118.715 26.1044C118.493 26.4007 118.345 26.7249 118.271 27.0768C118.197 27.4287 118.159 27.7529 118.159 28.0493V27.9937C118.159 28.8087 118.456 29.5034 119.049 30.0776C119.641 30.6518 120.373 31.1798 121.244 31.6614C122.114 32.143 123.059 32.6247 124.078 33.1062C125.097 33.5878 126.041 34.1343 126.912 34.7456C127.783 35.3569 128.514 36.0608 129.107 36.8573C129.7 37.6538 129.996 38.6263 129.996 39.7748V41.2196C129.996 43.7759 129.227 45.7024 127.69 46.9991C126.152 48.2957 124.069 48.944 121.438 48.944C118.734 48.944 116.539 48.3605 114.853 47.1936C113.167 46.0266 112.325 44.239 112.325 41.8309V38.3299H114.825C115.9 38.3299 116.65 38.4966 117.076 38.8301C117.502 39.1635 117.715 39.8674 117.715 40.9418V41.0529C117.715 42.0161 117.937 42.8312 118.382 43.4981C118.826 44.1649 119.753 44.4983 121.16 44.4983C122.568 44.4983 123.503 44.1649 123.967 43.4981C124.43 42.8312 124.661 41.9976 124.661 40.9974V40.4416C124.661 39.8489 124.374 39.3209 123.8 38.8579C123.226 38.3948 122.494 37.9317 121.605 37.4686C120.716 37.0056 119.771 36.5147 118.771 35.996C117.77 35.4773 116.826 34.8661 115.937 34.1621C115.048 33.4582 114.316 32.6339 113.742 31.6892C113.167 30.7445 112.88 29.6053 112.88 28.2716V26.9379C112.88 24.8633 113.63 23.3073 115.131 22.2699C116.631 21.2325 118.511 20.7139 120.771 20.7139C122.401 20.7139 123.781 20.8991 124.911 21.2696C126.041 21.6401 126.958 22.1495 127.662 22.7978C128.366 23.4461 128.876 24.2149 129.19 25.104C129.505 25.9932 129.663 26.9564 129.663 27.9937V30.7167H127.551C126.551 30.7167 125.745 30.5963 125.134 30.3555C124.522 30.1147 124.217 29.4016 124.217 28.216C124.217 27.4751 123.957 26.762 123.439 26.0765C122.92 25.3911 122.124 25.0487 121.049 25.0487ZM144.907 44.4987C145.093 44.4616 145.297 44.4893 145.519 44.5819C145.741 44.6746 145.852 44.8876 145.852 45.221V47.2771C145.852 47.7588 145.769 48.0829 145.602 48.2496C145.435 48.4163 145.297 48.5182 145.185 48.5553C143.852 48.8887 142.638 48.9628 141.545 48.7776C140.453 48.5923 139.508 48.2404 138.711 47.7218C137.915 47.2031 137.304 46.5455 136.877 45.749C136.451 44.9524 136.238 44.0912 136.238 43.1649V25.6044H133.015V24.2707C133.015 23.0852 133.256 22.2146 133.738 21.6588C134.219 21.1031 135.053 20.8253 136.238 20.8253V14.0456V13.8233C136.238 12.6007 136.516 11.656 137.072 10.9892C137.628 10.3223 138.239 9.84067 138.906 9.54431C139.684 9.17382 140.573 8.97004 141.573 8.93297V20.8252H145.019V21.9366C145.019 22.974 144.769 23.8447 144.268 24.5485C143.768 25.2523 142.87 25.6043 141.573 25.6043V42.2757C141.573 43.0537 141.86 43.665 142.435 44.1096C143.009 44.5541 143.833 44.6839 144.907 44.4987ZM157.429 15.9351L157.429 20.9365H160.652V22.6592C160.652 23.5483 160.384 24.28 159.846 24.8542C159.309 25.4284 158.503 25.7156 157.429 25.7156V43.2761C157.429 43.6466 157.485 43.906 157.596 44.0542C157.707 44.2024 157.855 44.3506 158.04 44.4988C158.3 44.684 158.568 44.9804 158.846 45.3879C159.124 45.7954 159.263 46.3511 159.263 47.055V48.6666H150.26V46.9994C150.26 46.2955 150.399 45.7398 150.677 45.3323C150.955 44.9248 151.242 44.6284 151.539 44.4432C151.724 44.295 151.872 44.1468 151.983 43.9986C152.094 43.8504 152.15 43.591 152.15 43.2205V25.7156H148.871V24.104C148.871 23.3631 149.093 22.65 149.538 21.9645C149.983 21.2791 150.853 20.9365 152.15 20.9365V14.2679V12.9342C152.15 12.008 152.344 11.1281 152.733 10.2946C153.122 9.461 153.687 8.76636 154.428 8.21065C155.169 7.65494 156.068 7.28445 157.123 7.09923C158.179 6.91401 159.393 6.98808 160.763 7.32151C160.837 7.32151 160.939 7.37708 161.069 7.48822C161.199 7.59937 161.263 7.72902 161.263 7.87722V11.3226C161.263 11.5449 161.208 11.6931 161.097 11.7672C160.986 11.8413 160.893 11.8598 160.819 11.8227C159.67 11.5264 158.818 11.6097 158.263 12.0728C157.707 12.5359 157.429 13.1934 157.429 14.0456V15.9351ZM179.342 25.271C179.342 25.6415 179.203 25.8544 178.926 25.9099C178.648 25.9655 178.361 25.9562 178.064 25.8821C177.175 25.6599 176.304 25.6228 175.452 25.771C174.6 25.9192 173.841 26.1786 173.174 26.5491C172.507 26.9195 171.97 27.3734 171.562 27.9106C171.155 28.4478 170.951 29.0128 170.951 29.6055V43.3872C170.951 43.7206 170.997 43.9707 171.09 44.1374C171.183 44.3041 171.322 44.4431 171.507 44.5542C171.803 44.7394 172.09 45.0451 172.368 45.4711C172.646 45.8972 172.785 46.4622 172.785 47.166L172.729 48.722H163.727V47.1105C163.727 46.4065 163.875 45.8416 164.171 45.4155C164.468 44.9895 164.764 44.6838 165.06 44.4986C165.246 44.3875 165.385 44.2486 165.477 44.0818C165.57 43.9151 165.616 43.6465 165.616 43.2761V26.2712C165.616 25.9008 165.412 25.5858 165.005 25.3265C164.709 25.1413 164.421 24.8449 164.144 24.4374C163.866 24.0299 163.727 23.5112 163.727 22.8814V20.992H169.617C170.506 20.992 170.951 21.3995 170.951 22.2145V22.937C171.433 22.5665 171.951 22.2331 172.507 21.9367C172.989 21.6773 173.517 21.4366 174.091 21.2143C174.665 20.992 175.267 20.8438 175.897 20.7697C176.638 20.6956 177.434 20.7512 178.286 20.9364C178.472 20.9735 178.694 21.0846 178.953 21.2698C179.213 21.4551 179.342 21.7514 179.342 22.1589L179.342 25.271ZM191.197 20.7142C192.531 20.7142 193.735 20.9087 194.809 21.2977C195.883 21.6867 196.81 22.2239 197.588 22.9093C198.366 23.5947 198.958 24.3911 199.366 25.2989C199.773 26.2066 199.977 27.1605 199.977 28.1608V41.22C199.977 43.6281 199.181 45.5268 197.588 46.9161C195.995 48.3054 193.864 49 191.197 49C188.418 49 186.251 48.2776 184.695 46.8327C183.139 45.3879 182.361 43.2391 182.361 40.3865V29.1611C182.361 26.3085 183.139 24.1874 184.695 22.7982C186.251 21.4089 188.418 20.7142 191.197 20.7142ZM191.197 44.5542C192.197 44.5542 193.031 44.2393 193.698 43.6095C194.364 42.9797 194.698 42.035 194.698 40.7753V29.161C194.698 27.5679 194.346 26.4935 193.642 25.9378C192.938 25.3821 192.086 25.1043 191.086 25.1043C190.048 25.1043 189.215 25.3728 188.585 25.91C187.955 26.4472 187.64 27.4569 187.64 28.9387V40.6642C187.64 42.1091 187.974 43.1186 188.641 43.6928C189.307 44.267 190.16 44.5542 191.197 44.5542ZM223.835 44.4987C224.095 44.721 224.363 45.0357 224.641 45.4432C224.919 45.8507 225.058 46.4064 225.058 47.1103V48.7219H220.445C219.482 48.7219 218.825 48.3792 218.473 47.6938C218.121 47.0084 217.945 46.1842 217.945 45.2209V29.3831C217.945 27.8642 217.593 26.8083 216.889 26.2155C216.185 25.6227 215.333 25.3264 214.333 25.3264C213.703 25.3264 213.166 25.4097 212.721 25.5764C212.276 25.7432 211.906 25.9191 211.61 26.1044C211.239 26.3267 210.943 26.5674 210.72 26.8268V43.3315C210.72 43.702 210.776 43.9613 210.887 44.1095C210.998 44.2577 211.146 44.3874 211.332 44.4985C211.628 44.7208 211.915 45.0357 212.193 45.4432C212.471 45.8507 212.61 46.4064 212.61 47.1104V48.7219H203.552V47.0548C203.552 46.3509 203.691 45.7952 203.969 45.3876C204.246 44.9801 204.534 44.6838 204.83 44.4986C205.015 44.3504 205.163 44.2021 205.274 44.0539C205.386 43.9057 205.441 43.6279 205.441 43.2204V26.2156C205.441 25.9933 205.376 25.8081 205.247 25.6599C205.117 25.5116 204.96 25.382 204.774 25.2709C204.515 25.0856 204.246 24.7893 203.969 24.3818C203.691 23.9743 203.552 23.4556 203.552 22.8258V20.9364H209.609C209.905 20.9364 210.118 21.0012 210.248 21.1309C210.378 21.2605 210.48 21.3994 210.554 21.5476C210.628 21.6958 210.683 21.8811 210.72 22.1034C211.091 21.844 211.517 21.6217 211.999 21.4365C212.406 21.2513 212.915 21.0846 213.527 20.9364C214.138 20.7881 214.833 20.7141 215.611 20.7141C218.389 20.7141 220.353 21.455 221.501 22.9369C222.65 24.4188 223.224 26.5861 223.224 29.4388V43.3871C223.224 43.7206 223.28 43.9614 223.391 44.1096C223.502 44.2578 223.65 44.3875 223.835 44.4987ZM238.302 44.4987C238.487 44.4616 238.691 44.4893 238.913 44.5819C239.135 44.6746 239.247 44.8876 239.247 45.221V47.2771C239.247 47.7588 239.163 48.0829 238.997 48.2496C238.83 48.4163 238.691 48.5182 238.58 48.5553C237.246 48.8887 236.033 48.9628 234.94 48.7776C233.847 48.5923 232.902 48.2404 232.106 47.7218C231.309 47.2031 230.698 46.5455 230.272 45.749C229.846 44.9524 229.633 44.0912 229.633 43.1649V25.6044H226.41V24.2707C226.41 23.0852 226.65 22.2146 227.132 21.6588C227.614 21.1031 228.447 20.8253 229.633 20.8253V14.0456V13.8233C229.633 12.6007 229.911 11.656 230.466 10.9892C231.022 10.3223 231.633 9.84067 232.3 9.54431C233.078 9.17382 233.967 8.97004 234.968 8.93297V20.8252H238.413V21.9366C238.413 22.974 238.163 23.8447 237.663 24.5485C237.163 25.2523 236.264 25.6043 234.968 25.6043V42.2757C234.968 43.0537 235.255 43.665 235.829 44.1096C236.403 44.5541 237.227 44.6839 238.302 44.4987Z" fill="#045DC5"/>
</svg>
