<svg width="1950" height="558" viewBox="0 0 1950 558" fill="none" xmlns="http://www.w3.org/2000/svg">
<rect x="5" y="5" width="1940" height="548" rx="85" fill="#005BFF" stroke="white" stroke-width="10"/>
<path d="M90 5H468C514.944 5 553 43.0558 553 90V468C553 514.944 514.944 553 468 553H90C43.0558 553 5 514.944 5 468V90C5 43.0558 43.0558 5 90 5Z" fill="#005BFF" stroke="white" stroke-width="10"/>
<path d="M289.111 162.641H323.049V336.747C323.049 356.073 318.748 372.158 310.146 385.002C301.543 397.846 290.113 407.509 275.854 413.99C261.714 420.354 246.336 423.535 229.721 423.535C212.281 423.535 196.49 420.354 182.35 413.99C168.327 407.509 157.191 397.846 148.942 385.002C140.812 372.158 136.746 356.073 136.746 336.747V162.641H170.507V336.747C170.507 350.181 172.981 361.257 177.931 369.978C182.88 378.698 189.773 385.179 198.611 389.421C207.567 393.663 217.937 395.784 229.721 395.784C241.622 395.784 251.992 393.663 260.83 389.421C269.786 385.179 276.738 378.698 281.688 369.978C286.637 361.257 289.111 350.181 289.111 336.747V162.641ZM413.195 162.641V420H379.081V162.641H413.195Z" fill="white"/>
<path d="M693.311 181.734V368H668.62V181.734H693.311ZM771.348 265.528V285.741H687.938V265.528H771.348ZM784.013 181.734V201.947H687.938V181.734H784.013ZM887.124 344.333V273.076C887.124 267.618 886.015 262.884 883.798 258.876C881.666 254.782 878.425 251.627 874.075 249.409C869.726 247.192 864.353 246.083 857.956 246.083C851.986 246.083 846.741 247.106 842.221 249.153C837.786 251.2 834.289 253.887 831.73 257.213C829.257 260.539 828.021 264.121 828.021 267.959H804.354C804.354 263.012 805.633 258.108 808.191 253.247C810.75 248.386 814.417 243.993 819.193 240.07C824.055 236.062 829.854 232.906 836.592 230.604C843.415 228.215 851.005 227.021 859.363 227.021C869.427 227.021 878.297 228.727 885.973 232.139C893.734 235.55 899.789 240.71 904.139 247.618C908.574 254.441 910.791 263.012 910.791 273.332V337.809C910.791 342.414 911.175 347.318 911.942 352.521C912.795 357.723 914.032 362.201 915.652 365.953V368H890.962C889.768 365.271 888.83 361.646 888.147 357.126C887.465 352.521 887.124 348.256 887.124 344.333ZM891.218 284.078L891.474 300.709H867.551C860.813 300.709 854.8 301.263 849.513 302.372C844.225 303.396 839.79 304.973 836.208 307.105C832.626 309.238 829.897 311.924 828.021 315.165C826.144 318.321 825.206 322.031 825.206 326.295C825.206 330.645 826.187 334.61 828.148 338.192C830.11 341.774 833.052 344.632 836.976 346.764C840.984 348.811 845.888 349.834 851.688 349.834C858.937 349.834 865.333 348.299 870.877 345.229C876.421 342.158 880.813 338.406 884.054 333.971C887.38 329.536 889.171 325.229 889.427 321.05L899.533 332.436C898.936 336.018 897.316 339.983 894.672 344.333C892.028 348.683 888.489 352.862 884.054 356.87C879.704 360.793 874.502 364.077 868.446 366.721C862.476 369.279 855.739 370.559 848.233 370.559C838.852 370.559 830.622 368.725 823.543 365.058C816.549 361.39 811.091 356.486 807.168 350.346C803.33 344.12 801.411 337.169 801.411 329.493C801.411 322.073 802.861 315.549 805.761 309.92C808.66 304.206 812.84 299.472 818.298 295.72C823.756 291.882 830.323 288.982 837.999 287.021C845.675 285.059 854.246 284.078 863.713 284.078H891.218ZM1028.61 331.284C1028.61 327.873 1027.85 324.717 1026.31 321.817C1024.86 318.832 1021.83 316.146 1017.23 313.758C1012.71 311.285 1005.89 309.152 996.76 307.361C989.084 305.741 982.133 303.822 975.907 301.604C969.767 299.387 964.521 296.701 960.172 293.545C955.908 290.389 952.624 286.679 950.321 282.415C948.019 278.151 946.867 273.161 946.867 267.447C946.867 261.989 948.061 256.829 950.449 251.968C952.923 247.106 956.377 242.799 960.812 239.047C965.332 235.294 970.747 232.352 977.059 230.22C983.37 228.088 990.406 227.021 998.167 227.021C1009.25 227.021 1018.72 228.983 1026.57 232.906C1034.41 236.829 1040.43 242.075 1044.61 248.642C1048.78 255.123 1050.87 262.33 1050.87 270.262H1027.21C1027.21 266.424 1026.06 262.714 1023.75 259.132C1021.54 255.465 1018.25 252.437 1013.9 250.049C1009.64 247.661 1004.39 246.467 998.167 246.467C991.6 246.467 986.27 247.49 982.176 249.537C978.167 251.499 975.225 254.015 973.349 257.085C971.558 260.155 970.662 263.396 970.662 266.808C970.662 269.366 971.089 271.669 971.941 273.716C972.88 275.677 974.5 277.511 976.803 279.217C979.105 280.837 982.346 282.372 986.525 283.822C990.704 285.272 996.035 286.722 1002.52 288.172C1013.86 290.73 1023.2 293.801 1030.53 297.383C1037.87 300.965 1043.33 305.357 1046.91 310.56C1050.49 315.762 1052.28 322.073 1052.28 329.493C1052.28 335.549 1051 341.092 1048.44 346.124C1045.97 351.156 1042.35 355.506 1037.57 359.173C1032.88 362.755 1027.25 365.569 1020.68 367.616C1014.2 369.578 1006.91 370.559 998.807 370.559C986.611 370.559 976.291 368.384 967.848 364.034C959.404 359.685 953.008 354.056 948.658 347.147C944.309 340.239 942.134 332.947 942.134 325.271H965.929C966.27 331.753 968.146 336.913 971.558 340.751C974.969 344.504 979.148 347.19 984.095 348.811C989.041 350.346 993.945 351.113 998.807 351.113C1005.29 351.113 1010.7 350.26 1015.05 348.555C1019.49 346.849 1022.86 344.504 1025.16 341.519C1027.46 338.534 1028.61 335.122 1028.61 331.284ZM1141.32 229.58V247.746H1066.48V229.58H1141.32ZM1091.81 195.935H1115.48V333.715C1115.48 338.406 1116.2 341.945 1117.65 344.333C1119.1 346.721 1120.98 348.299 1123.28 349.066C1125.58 349.834 1128.06 350.218 1130.7 350.218C1132.66 350.218 1134.71 350.047 1136.84 349.706C1139.06 349.28 1140.72 348.938 1141.83 348.683L1141.96 368C1140.08 368.597 1137.61 369.151 1134.54 369.663C1131.56 370.26 1127.93 370.559 1123.67 370.559C1117.87 370.559 1112.54 369.407 1107.67 367.104C1102.81 364.802 1098.93 360.964 1096.03 355.591C1093.22 350.132 1091.81 342.798 1091.81 333.587V195.935ZM1197.35 181.734V368H1172.66V181.734H1197.35ZM1275.39 265.528V285.741H1191.98V265.528H1275.39ZM1288.06 181.734V201.947H1191.98V181.734H1288.06ZM1334.24 251.328V368H1310.57V229.58H1333.6L1334.24 251.328ZM1377.48 228.812L1377.35 250.816C1375.39 250.39 1373.51 250.134 1371.72 250.049C1370.02 249.878 1368.05 249.793 1365.84 249.793C1360.38 249.793 1355.56 250.646 1351.38 252.352C1347.2 254.057 1343.66 256.445 1340.76 259.516C1337.86 262.586 1335.56 266.253 1333.85 270.518C1332.23 274.697 1331.17 279.302 1330.66 284.334L1324 288.172C1324 279.814 1324.81 271.967 1326.43 264.633C1328.14 257.298 1330.74 250.816 1334.24 245.188C1337.74 239.473 1342.17 235.038 1347.54 231.883C1353 228.642 1359.48 227.021 1366.99 227.021C1368.69 227.021 1370.66 227.235 1372.87 227.661C1375.09 228.002 1376.63 228.386 1377.48 228.812ZM1390.53 300.325V297.383C1390.53 287.404 1391.98 278.151 1394.88 269.622C1397.78 261.008 1401.96 253.546 1407.41 247.234C1412.87 240.838 1419.48 235.891 1427.24 232.395C1435 228.812 1443.7 227.021 1453.34 227.021C1463.06 227.021 1471.81 228.812 1479.57 232.395C1487.41 235.891 1494.07 240.838 1499.52 247.234C1505.07 253.546 1509.29 261.008 1512.19 269.622C1515.09 278.151 1516.54 287.404 1516.54 297.383V300.325C1516.54 310.304 1515.09 319.557 1512.19 328.086C1509.29 336.615 1505.07 344.077 1499.52 350.474C1494.07 356.785 1487.46 361.731 1479.69 365.313C1472.02 368.81 1463.32 370.559 1453.6 370.559C1443.87 370.559 1435.13 368.81 1427.37 365.313C1419.61 361.731 1412.96 356.785 1407.41 350.474C1401.96 344.077 1397.78 336.615 1394.88 328.086C1391.98 319.557 1390.53 310.304 1390.53 300.325ZM1414.19 297.383V300.325C1414.19 307.233 1415 313.758 1416.62 319.898C1418.25 325.954 1420.68 331.327 1423.92 336.018C1427.24 340.708 1431.38 344.418 1436.33 347.147C1441.27 349.791 1447.03 351.113 1453.6 351.113C1460.08 351.113 1465.75 349.791 1470.61 347.147C1475.56 344.418 1479.65 340.708 1482.89 336.018C1486.13 331.327 1488.56 325.954 1490.18 319.898C1491.89 313.758 1492.74 307.233 1492.74 300.325V297.383C1492.74 290.56 1491.89 284.121 1490.18 278.065C1488.56 271.925 1486.09 266.509 1482.76 261.818C1479.52 257.042 1475.43 253.29 1470.48 250.561C1465.62 247.831 1459.91 246.467 1453.34 246.467C1446.86 246.467 1441.14 247.831 1436.2 250.561C1431.34 253.29 1427.24 257.042 1423.92 261.818C1420.68 266.509 1418.25 271.925 1416.62 278.065C1415 284.121 1414.19 290.56 1414.19 297.383ZM1569.88 259.132V368H1546.22V229.58H1568.61L1569.88 259.132ZM1564.26 293.545L1554.41 293.161C1554.49 283.694 1555.9 274.952 1558.63 266.936C1561.36 258.833 1565.19 251.797 1570.14 245.827C1575.09 239.857 1580.97 235.252 1587.79 232.011C1594.7 228.685 1602.34 227.021 1610.69 227.021C1617.52 227.021 1623.66 227.96 1629.12 229.836C1634.57 231.627 1639.22 234.527 1643.06 238.535C1646.98 242.544 1649.97 247.746 1652.02 254.143C1654.06 260.454 1655.09 268.172 1655.09 277.298V368H1631.29V277.042C1631.29 269.793 1630.22 263.993 1628.09 259.644C1625.96 255.209 1622.85 252.01 1618.75 250.049C1614.66 248.002 1609.63 246.979 1603.66 246.979C1597.77 246.979 1592.4 248.215 1587.54 250.688C1582.76 253.162 1578.63 256.573 1575.13 260.923C1571.72 265.272 1569.03 270.262 1567.07 275.891C1565.19 281.434 1564.26 287.319 1564.26 293.545ZM1748.99 229.58V247.746H1674.15V229.58H1748.99ZM1699.48 195.935H1723.14V333.715C1723.14 338.406 1723.87 341.945 1725.32 344.333C1726.77 346.721 1728.65 348.299 1730.95 349.066C1733.25 349.834 1735.72 350.218 1738.37 350.218C1740.33 350.218 1742.38 350.047 1744.51 349.706C1746.73 349.28 1748.39 348.938 1749.5 348.683L1749.63 368C1747.75 368.597 1745.28 369.151 1742.21 369.663C1739.22 370.26 1735.6 370.559 1731.33 370.559C1725.53 370.559 1720.2 369.407 1715.34 367.104C1710.48 364.802 1706.6 360.964 1703.7 355.591C1700.88 350.132 1699.48 342.798 1699.48 333.587V195.935Z" fill="white"/>
</svg>
